PathFileType	4	(X/Y/Z)	c:/Users/goper/Files/vsCode/490R/osim_files/C15/C15_Fast_03.trc
DataRate	CameraRate	NumFrames	NumMarkers	Units                	OrigDataRate	OrigDataStartFrame	OrigNumFrames
250.00	250.00	8	36	mm	250.0	1723	2296
                Frame#	Time	LPSIS			LASIS			LTH1			LTH2			LTH3			LTH4			LLFE			LMFE			LSH1			LSH2			LSH3			LSH4			LLMAL			LMMAL			LCAL			LMTP5			LTOE			LMTP1			RPSIS			RASIS			RTH1			RTH2			RTH3			RTH4			RLFE			RMFE			RSH1			RSH2			RSH3			RSH4			RLMAL			RMMAL			RCAL			RMTP1			RTOE			RMTP5		
		X1	Y1	Z1	X2	Y2	Z2	X3	Y3	Z3	X4	Y4	Z4	X5	Y5	Z5	X6	Y6	Z6	X7	Y7	Z7	X8	Y8	Z8	X9	Y9	Z9	X10	Y10	Z10	X11	Y11	Z11	X12	Y12	Z12	X13	Y13	Z13	X14	Y14	Z14	X15	Y15	Z15	X16	Y16	Z16	X17	Y17	Z17	X18	Y18	Z18	X19	Y19	Z19	X20	Y20	Z20	X21	Y21	Z21	X22	Y22	Z22	X23	Y23	Z23	X24	Y24	Z24	X25	Y25	Z25	X26	Y26	Z26	X27	Y27	Z27	X28	Y28	Z28	X29	Y29	Z29	X30	Y30	Z30	X31	Y31	Z31	X32	Y32	Z32	X33	Y33	Z33	X34	Y34	Z34	X35	Y35	Z35	X36	Y36	Z36

1723	6.88800	-3284.49097	1000.63818	312.27020	-3447.21289	966.74512	384.13461	-3274.26880	601.75134	446.51312	-3262.60327	557.39374	432.96744	-3325.09546	596.30450	440.60370	-3314.46851	552.14117	432.70624	-3251.01709	483.44244	418.80084	-3251.47632	457.88641	299.68719	-3138.10669	425.91876	432.87869	-3110.03589	389.08096	435.92252	-3184.50928	385.93005	433.00479	-3151.39355	353.58261	435.54736	-2975.02979	159.07516	382.70056	-3004.60742	170.15034	292.92740	-2905.53418	163.35791	337.37549	-3048.17651	50.70783	396.25940	-3105.92310	63.05534	333.75375	-3059.69507	47.58393	277.71664	0.00000	0.00000	0.00000	-3447.65845	976.42224	133.70959	0.00000	0.00000	0.00000	0.00000	0.00000	0.00000	-3561.84424	649.35712	80.67625	-3574.81641	603.15918	87.25552	-3574.85815	509.99136	112.21253	-3561.88892	488.24823	228.43346	-3529.66357	392.90616	89.80656	0.00000	0.00000	0.00000	-3589.63525	397.01535	92.66737	-3590.36401	354.64117	88.58770	-3609.77368	96.74990	143.93013	-3636.08740	123.36481	230.87730	0.00000	0.00000	0.00000	-3754.32520	71.21988	233.95113	0.00000	0.00000	0.00000	0.00000	0.00000	0.00000
1724	6.89200	0.00000	0.00000	0.00000	-3453.50024	966.44476	383.31189	-3281.54590	600.25677	446.24442	-3269.67798	556.69458	432.58331	-3331.98340	595.78577	440.32437	-3321.56006	551.60126	432.56790	-3258.20264	483.04553	418.67328	-3260.69971	458.50061	298.68997	-3144.55908	427.09210	432.46570	-3116.21875	390.64597	435.57544	-3190.47144	386.57697	433.07404	-3156.82959	354.61227	435.52545	-2977.29932	161.92961	381.36417	-3008.67578	171.87854	293.31256	-2909.44336	167.41423	337.04037	-3048.70605	51.03779	396.09808	-3107.55908	63.16140	334.23608	-3060.15015	47.78024	277.79953	0.00000	0.00000	0.00000	-3453.54810	976.92529	132.95830	0.00000	0.00000	0.00000	0.00000	0.00000	0.00000	-3569.37988	650.60486	79.94492	-3582.42432	604.53156	87.21944	-3582.81763	511.42334	112.00949	-3568.38403	490.33282	227.91159	-3535.62793	394.39926	88.55643	-3546.94312	351.49512	84.43347	-3595.74878	397.76602	91.97008	-3595.86670	355.43576	87.66428	-3610.42041	96.85345	143.98877	-3637.39087	123.34746	230.84770	0.00000	0.00000	0.00000	0.00000	0.00000	0.00000	-752.20184	734.77197	2361.50879	0.00000	0.00000	0.00000
1725	6.89600	0.00000	0.00000	0.00000	-3459.65308	966.11237	382.41281	-3288.55640	599.77209	445.69882	-3276.90356	555.99603	432.20987	-3339.07812	595.33832	440.07559	-3328.79224	551.04083	432.43243	-3265.64771	482.66666	418.60812	-3265.62061	455.63016	299.45029	-3151.15039	428.32648	431.88660	-3122.94531	392.18832	435.80597	0.00000	0.00000	0.00000	-3162.36548	355.64276	435.47141	-2980.91821	164.70010	381.46091	-3013.13965	173.75847	293.70926	-2913.64185	171.65048	336.87146	-3049.42114	51.43610	396.07431	-3108.42310	62.67005	334.28705	-3060.71704	48.07768	277.87448	0.00000	0.00000	0.00000	-3459.34399	977.40643	132.15248	0.00000	0.00000	0.00000	0.00000	0.00000	0.00000	-3577.00586	651.95447	79.55257	-3589.97705	606.20038	87.29512	-3590.69824	512.62354	111.78725	-3575.06982	492.32767	227.37794	-3541.48438	395.87152	87.30006	-3551.95898	352.85757	83.08052	-3601.59375	398.41776	91.25482	-3600.99805	355.81882	86.14775	-3611.18066	96.92805	143.97426	-3638.47363	123.32127	230.78711	0.00000	0.00000	0.00000	0.00000	0.00000	0.00000	-752.25769	734.75507	2361.51221	0.00000	0.00000	0.00000
1726	6.90000	0.00000	0.00000	0.00000	-3465.83032	965.85571	381.52972	-3295.69995	599.30426	445.17401	-3284.28735	555.22400	431.84369	-3344.72119	594.30127	439.30670	-3336.41284	550.78351	432.30606	-3273.35840	482.36673	418.62964	-3273.21045	454.25073	299.41034	-3158.03394	429.76794	431.28812	-3129.30347	393.99350	435.25833	-3202.75879	388.07065	433.29364	-3168.26294	356.89490	435.52246	-2984.86206	167.56573	381.60782	-3017.85083	175.61800	294.14157	-2918.15918	176.02187	336.61850	-3049.63599	51.91705	396.12015	-3109.42749	62.07505	334.37756	-3061.50879	48.49107	277.97781	0.00000	0.00000	0.00000	-3465.27783	977.98584	131.32762	0.00000	0.00000	0.00000	0.00000	0.00000	0.00000	-3584.58643	653.55518	79.50624	-3597.65161	607.91138	87.65202	-3598.18018	513.59424	111.47577	-3581.75244	494.10599	226.82050	-3546.82104	397.07974	86.13551	0.00000	0.00000	0.00000	-3607.14038	399.20432	90.32698	-3606.16479	356.70486	85.72839	-3611.97510	96.94859	144.02089	-3639.56152	123.39816	230.80286	-3553.35742	70.63683	188.51862	0.00000	0.00000	0.00000	-752.28735	734.73267	2361.53833	0.00000	0.00000	0.00000
1727	6.90400	0.00000	0.00000	0.00000	-3472.08130	965.76788	380.54703	-3303.03589	598.81671	444.68478	-3291.93018	554.45679	431.60977	-3352.14062	593.82257	439.14255	-3344.01123	550.25024	432.26398	-3280.32739	481.78369	418.31705	-3300.14868	460.67139	299.54486	-3165.13770	431.19617	430.54977	-3135.40894	395.92685	434.42142	-3209.29565	388.90277	433.45364	-3174.34863	358.33096	435.64255	-2989.20361	170.42986	381.81064	-3022.93506	177.54762	294.65445	-2922.90356	180.51762	336.50244	-3051.25000	52.55709	396.15884	-3109.89087	61.32603	334.32608	-3062.20605	48.96990	278.07648	0.00000	0.00000	0.00000	-3471.12134	978.55609	130.43776	0.00000	0.00000	0.00000	0.00000	0.00000	0.00000	-3591.94971	655.27179	79.61399	-3605.17456	609.70435	87.83398	-3604.96509	514.26025	111.08857	-3588.36816	495.33704	226.25497	-3552.00854	398.06369	84.96523	0.00000	0.00000	0.00000	-3612.50757	399.42401	89.79451	-3610.77539	356.65652	84.37193	-3612.93896	97.04211	144.10179	-3640.54028	123.36871	230.91290	-3553.87573	71.29929	188.42047	0.00000	0.00000	0.00000	-752.26758	734.70422	2361.51514	0.00000	0.00000	0.00000
1728	6.90800	0.00000	0.00000	0.00000	-3478.12524	965.69891	379.53845	-3310.44849	598.19476	444.19705	-3299.68506	553.63770	431.37164	-3361.30713	593.94067	439.54889	0.00000	0.00000	0.00000	-3289.22949	481.59100	418.69049	0.00000	0.00000	0.00000	-3172.70435	432.79282	430.15186	-3142.68628	397.85718	433.87216	-3217.17554	388.25433	434.53888	-3177.04785	359.61740	434.56995	-2993.69263	173.30000	381.94714	-3028.24048	179.60867	295.15567	-2927.84839	185.13300	336.39111	-3052.05835	53.24854	396.05640	-3111.61523	60.85189	334.53555	-3063.07104	49.67672	278.18231	0.00000	0.00000	0.00000	-3476.97070	979.11566	129.55522	0.00000	0.00000	0.00000	0.00000	0.00000	0.00000	-3599.05444	656.96484	79.83839	-3612.41064	611.30780	87.79526	-3611.10205	514.71771	110.65026	-3594.67969	496.06412	225.69131	-3557.04077	398.76270	83.77710	0.00000	0.00000	0.00000	-3618.19141	398.37466	88.75512	-3615.49316	356.75458	83.75930	-3613.86084	97.06731	144.25206	-3641.37842	123.28542	231.15422	-3554.26953	71.74979	188.40823	0.00000	0.00000	0.00000	-752.28302	734.71545	2361.49829	0.00000	0.00000	0.00000
1729	6.91200	-3325.98267	999.05206	311.74725	-3484.12158	965.70984	378.51822	-3317.88550	597.51508	443.72055	0.00000	0.00000	0.00000	-3367.33276	592.88477	438.80804	0.00000	0.00000	0.00000	-3297.41577	481.07956	418.76584	0.00000	0.00000	0.00000	-3180.51172	437.00760	431.09534	-3149.18433	400.06564	432.35333	-3223.98315	389.33701	434.77643	-3183.94849	360.90964	434.61121	-2998.48193	176.29865	382.14682	-3033.67261	181.66574	295.64062	-2933.22705	189.99710	336.32455	-3053.13379	54.13472	396.07974	-3112.81836	60.25123	334.74741	-3064.14893	50.72108	278.28882	0.00000	0.00000	0.00000	-3482.91943	979.62518	128.65532	0.00000	0.00000	0.00000	0.00000	0.00000	0.00000	-3605.97534	657.56262	81.79462	-3619.42432	612.75836	87.61308	-3616.65845	514.87994	110.14503	-3600.75854	496.32016	225.14334	-3561.97681	399.15765	82.56551	0.00000	0.00000	0.00000	-3623.11377	398.19501	88.21869	-3620.11328	356.95279	84.00311	-3614.73486	97.07722	144.55064	-3642.16431	123.17136	231.51689	-3554.73950	72.26005	188.47356	0.00000	0.00000	0.00000	-752.30969	734.73108	2361.50293	0.00000	0.00000	0.00000
1730	6.91600	0.00000	0.00000	0.00000	-3489.96362	965.73938	377.53131	-3325.63647	596.91022	443.34180	0.00000	0.00000	0.00000	-3375.13525	592.39661	438.65503	0.00000	0.00000	0.00000	-3303.51196	479.89850	417.12784	0.00000	0.00000	0.00000	-3188.73730	438.25601	430.77893	-3157.23071	402.03934	432.35205	-3231.18481	390.57663	435.03348	-3190.90088	362.22906	434.81021	-3003.69727	179.34544	382.44473	-3039.26147	183.94347	296.14957	-2938.74097	195.06970	336.38419	-3054.37573	55.28164	396.17975	-3114.08569	59.64976	334.94751	-3065.24194	52.07403	278.38275	0.00000	0.00000	0.00000	-3488.76709	980.09229	127.71965	0.00000	0.00000	0.00000	0.00000	0.00000	0.00000	-3612.54248	658.56995	82.03914	-3626.04395	613.77783	87.34678	-3621.98755	514.85773	109.62604	-3606.42407	496.24979	224.63939	-3566.77075	399.28046	81.51939	0.00000	0.00000	0.00000	-3627.91748	397.85693	87.73857	-3624.41748	356.21677	83.17097	-3615.39307	97.09830	144.92169	-3642.75317	123.04185	231.92534	-3555.05420	72.63002	188.61891	0.00000	0.00000	0.00000	-752.26471	734.77393	2361.50244	0.00000	0.00000	0.00000
